HIERARCHY
ROOT Hips
{
    OFFSET 0.000000 0.000000 0.000000
    CHANNELS 6 Xposition Yposition Zposition Zrotation Xrotation Yrotation
        JOINT Chest
        {
            OFFSET -0.000000 31.986500 -0.000000
            CHANNELS 3 Zrotation Xrotation Yrotation
            JOINT Neck
            {
                OFFSET -0.000000 24.131615 0.000000
                CHANNELS 3 Zrotation Xrotation Yrotation
                JOINT Head
                {
                    OFFSET -0.000000 10.450000 0.000000
                    CHANNELS 3 Zrotation Xrotation Yrotation
                    End Site
                    {
                        OFFSET -0.000000 16.150003 0.000000
                    }
                }
            }
            JOINT LeftCollar
            {
                OFFSET -0.000000 24.131615 0.000000
                CHANNELS 3 Zrotation Xrotation Yrotation
                JOINT LeftShoulder
                {
                    OFFSET 20.000000 -0.000000 0.000000
                    CHANNELS 3 Zrotation Xrotation Yrotation
                    JOINT LeftElbow
                    {
                        OFFSET 22.686384 0.000000 0.000000
                        CHANNELS 3 Zrotation Xrotation Yrotation
                        JOINT LeftWrist
                        {
                            OFFSET 24.813133 0.000000 0.000000
                            CHANNELS 3 Zrotation Xrotation Yrotation
                            End Site
                            {
                                OFFSET 0.000000 -14.250000 0.000000
                            }
                        }
                    }
                }
            }
            JOINT RightCollar
            {
                OFFSET -0.000000 24.131615 0.000000
                CHANNELS 3 Zrotation Xrotation Yrotation
                JOINT RightShoulder
                {
                    OFFSET -20.000000 0.000000 0.000000
                    CHANNELS 3 Zrotation Xrotation Yrotation
                    JOINT RightElbow
                    {
                        OFFSET -22.686384 0.000000 0.000000
                        CHANNELS 3 Zrotation Xrotation Yrotation
                        JOINT RightWrist
                        {
                            OFFSET -24.813133 0.000000 0.000000
                            CHANNELS 3 Zrotation Xrotation Yrotation
                            End Site
                            {
                                OFFSET -0.000000 -14.250000 0.000000
                            }
                        }
                    }
                }
            }
        }
    JOINT LeftHip
    {
        OFFSET 11.400001 0.000000 0.000000
        CHANNELS 3 Zrotation Xrotation Yrotation
        JOINT LeftKnee
        {
            OFFSET -0.000000 -38.315727 0.000000
            CHANNELS 3 Zrotation Xrotation Yrotation
            JOINT LeftAnkle
            {
                OFFSET -0.000000 -38.060658 0.000000
                CHANNELS 3 Zrotation Xrotation Yrotation
                End Site
                {
                    OFFSET -0.000000 -4.750000 16.150003
                }
            }
        }
    }
    JOINT RightHip
    {
        OFFSET -11.400001 0.000000 0.000000
        CHANNELS 3 Zrotation Xrotation Yrotation
        JOINT RightKnee
        {
            OFFSET -0.000000 -38.315727 0.000000
            CHANNELS 3 Zrotation Xrotation Yrotation
            JOINT RightAnkle
            {
                OFFSET -0.000000 -38.060658 0.000000
                CHANNELS 3 Zrotation Xrotation Yrotation
                End Site
                {
                    OFFSET -0.000000 -4.750000 16.150003
                }
            }
        }
    }
}
MOTION
Frames:    13
Frame Time:    0.010000
64.679230    85.389236    25.272501    -7.259370    -3.105022    -52.283447    3.286220    20.768660    2.362630    -12.643867    7.525999    -8.995429    11.668142    -8.078841    -8.949697    -18.954540    -0.711256    4.275533    -40.533096    32.718136    -26.114433    1.737505    -3.021908    -111.845924    86.217827    -4.593971    36.657681    26.446190    0.582672    2.412308    20.626589    47.180115    15.883206    -19.237627    -13.705845    69.808266    -114.789520    -2.197583    -7.740782    16.247280    0.298750    1.768970    -6.078973    23.584942    -2.014007    -14.110291    -8.470602    31.367062    -3.137578    -5.819691    -6.009256    -9.357254    48.970772    3.684993    7.180717    -7.486474    -11.132024    
64.708015    85.590416    25.482998    -7.243217    -2.679585    -53.451355    3.445889    19.972088    1.985521    -12.743960    7.499334    -8.104259    11.372372    -7.881182    -8.100999    -18.702858    -0.673181    4.015764    -39.150269    32.337234    -27.691174    2.122723    -3.793656    -112.081543    86.185356    -4.470509    37.297649    26.277542    0.536314    2.179628    20.531353    47.316715    15.575187    -19.670713    -14.048264    69.765945    -115.105812    -1.590901    -8.247524    16.435139    0.364542    1.649842    -6.370987    23.904467    -1.046876    -14.650340    -8.439687    31.372587    -3.030675    -6.896560    -5.603380    -9.520937    49.429302    3.999725    6.218888    -7.120755    -10.804423    
64.730988    85.725494    25.670513    -7.206776    -2.254600    -54.607693    3.612176    19.182240    1.584270    -12.764921    7.544342    -7.192774    11.011205    -7.799130    -7.227662    -18.457495    -0.636655    3.770926    -37.702705    31.893583    -29.223099    2.645833    -4.798158    -112.247154    86.036514    -4.408824    38.020733    26.123302    0.482265    1.950313    20.307455    47.457527    15.387597    -20.167112    -14.426950    69.703697    -115.298065    -1.069207    -8.826665    16.659771    0.299021    1.473498    -6.733472    24.449743    -0.110545    -15.189375    -8.550543    31.432467    -2.849407    -7.877677    -5.023336    -9.547638    49.681358    4.257464    5.321821    -7.195618    -10.498700    
64.741714    85.794235    25.839211    -7.173722    -1.855596    -55.747665    3.771424    18.443542    1.151873    -12.697319    7.655796    -6.277906    10.584393    -7.837476    -6.345930    -18.216360    -0.576930    3.537939    -36.189480    31.381607    -30.729969    3.324186    -6.048618    -112.305275    85.822426    -4.409708    38.889843    25.990213    0.433720    1.739718    20.000223    47.544731    15.281065    -20.696230    -14.809564    69.637955    -115.355644    -0.661670    -9.440442    16.939131    0.133897    1.213505    -7.230211    25.216166    0.850147    -15.710609    -8.766135    31.528162    -2.605382    -8.689278    -4.286079    -9.439913    49.639584    4.503256    4.594213    -7.636093    -10.261994    
64.737007    85.798744    25.991461    -7.154475    -1.497857    -56.864941    3.905399    17.782179    0.682167    -12.539063    7.830990    -5.380066    10.103590    -7.996090    -5.476395    -17.971380    -0.522652    3.303697    -34.623085    30.837936    -32.213898    4.187498    -7.601376    -112.212067    85.539642    -4.475609    39.902309    25.887377    0.382288    1.552351    19.644085    47.542862    15.229279    -21.264008    -15.213378    69.561859    -115.250641    -0.396835    -10.044244    17.287426    -0.112110    0.835433    -7.930799    26.180323    1.908285    -16.200470    -9.033325    31.641560    -2.315384    -9.286258    -3.430971    -9.236195    49.244194    4.787015    4.155659    -8.342272    -10.118073    
64.717255    85.742798    26.128525    -7.146533    -1.186943    -57.952217    3.999571    17.203684    0.169186    -12.311460    8.060225    -4.497150    9.597891    -8.270670    -4.616416    -17.715626    -0.508360    3.093625    -33.016636    30.279882    -33.670296    5.259264    -9.428327    -111.916740    85.295059    -4.591716    41.143093    25.821955    0.346313    1.423977    19.293924    47.416626    15.174678    -21.846735    -15.619991    69.500008    -115.012032    -0.266679    -10.588581    17.713987    -0.435884    0.306707    -8.901931    27.305416    3.138422    -16.646475    -9.289129    31.757397    -1.999551    -9.654488    -2.515116    -9.006321    48.482849    5.164049    4.099863    -9.226320    -10.064561    
64.685020    85.631096    26.251640    -7.140100    -0.921693    -59.003597    4.034172    16.700848    -0.386186    -12.020774    8.351464    -3.667733    9.096992    -8.645381    -3.807643    -17.446405    -0.450087    2.850872    -31.367075    29.627962    -35.111992    6.499346    -11.310827    -111.384705    85.368896    -4.690479    42.792625    25.801178    0.311545    1.305771    18.964870    47.146564    15.104891    -22.475548    -16.068359    69.438927    -114.664268    -0.255328    -11.041744    18.223751    -0.850890    -0.375408    -10.190081    28.562040    4.582110    -17.034475    -9.473103    31.862984    -1.679416    -9.803991    -1.600872    -8.826482    47.393845    5.682676    4.442621    -10.231380    -10.079604    
64.643204    85.468628    26.363075    -7.126092    -0.698065    -60.016323    4.005155    16.258499    -0.980299    -11.719101    8.681307    -2.835442    8.638411    -9.115112    -2.986130    -17.161144    -0.387770    2.690284    -29.676252    28.881123    -36.572613    7.890190    -13.312734    -110.588051    85.595688    -4.756594    44.570950    25.827414    0.292357    1.314760    18.716166    46.773174    14.937273    -23.134336    -16.542881    69.411499    -114.340385    -0.288556    -11.391795    18.817492    -1.379051    -1.166329    -11.806391    29.941509    6.226386    -17.344128    -9.535138    31.944338    -1.377356    -9.756359    -0.741974    -8.747319    46.052048    6.364680    5.102274    -11.330047    -10.132819    
64.594177    85.260078    26.466516    -7.100208    -0.511912    -60.991238    3.913340    15.865726    -1.599028    -11.404116    9.054269    -2.048737    8.246723    -9.643022    -2.207894    -16.851616    -0.393479    2.523998    -27.977524    28.110073    -38.008396    9.445665    -15.398734    -109.497574    86.005440    -4.747000    46.451466    25.896376    0.313761    1.370662    18.557838    46.240623    14.659235    -23.809313    -17.037786    69.451759    -114.195694    -0.283858    -11.633968    19.491053    -2.038193    -1.982529    -13.725306    31.451984    8.008739    -17.545296    -9.436793    31.986044    -1.116764    -9.535265    0.023553    -8.780316    44.547058    7.194396    5.933397    -12.514638    -10.192201    
64.539902    85.009453    26.566755    -7.064121    -0.358566    -61.930901    3.757017    15.520469    -2.221789    -11.095597    9.450824    -1.305274    7.934293    -10.211279    -1.467841    -16.525120    -0.345270    2.356309    -26.269260    27.168913    -39.425831    11.077743    -17.238041    -108.144485    86.948235    -4.503277    48.665184    25.996792    0.316266    1.486768    18.494497    45.616131    14.259872    -24.553738    -17.618267    69.531525    -114.363075    -0.164431    -11.800559    20.235823    -2.834414    -2.723035    -15.890371    33.110653    9.838006    -17.601273    -9.155993    31.972435    -0.918590    -9.161433    0.670034    -8.908625    42.962219    8.130793    6.784958    -13.786897    -10.230517    
64.482399    84.719971    26.669025    -7.024467    -0.231939    -62.839165    3.549106    15.225617    -2.821979    -10.808140    9.849287    -0.597973    7.705910    -10.798904    -0.754785    -16.184940    -0.297447    2.199727    -24.562162    26.101961    -40.845276    12.750993    -18.963562    -106.533043    88.104439    -4.028677    50.766140    26.106062    0.353572    1.689787    18.586794    44.852283    13.659567    -25.269569    -18.181345    69.757317    -115.091728    0.195453    -11.918544    21.040503    -3.757730    -3.292956    -18.226500    34.933590    11.621135    -17.477503    -8.696197    31.889336    -0.796864    -8.652614    1.177875    -9.107464    41.362164    9.133780    7.538929    -15.145211    -10.232239    
64.423401    84.394676    26.778816    -6.994880    -0.124645    -63.721489    3.312052    14.991200    -3.367197    -10.529159    10.235555    0.050697    7.541356    -11.389993    -0.073912    -15.838267    -0.256678    2.020649    -22.887669    24.904699    -42.231522    14.432247    -20.454302    -104.697968    89.592491    -3.233362    52.816078    26.196625    0.415837    1.963246    18.816563    43.945061    12.891042    -25.977295    -18.782129    70.098518    -116.442589    0.808346    -12.010991    21.893347    -4.775649    -3.624292    -20.652044    36.922562    13.287761    -17.153311    -8.097466    31.725147    -0.755007    -8.022163    1.533516    -9.354443    39.789867    10.180245    8.120218    -16.573072    -10.199083    
64.364258    84.037308    26.901674    -6.996272    -0.027653    -64.585426    3.072499    14.832327    -3.825777    -10.235056    10.605645    0.670807    7.379661    -12.004719    0.531564    -15.493578    -0.217223    1.789039    -21.282305    23.570711    -43.555054    16.051794    -21.631250    -102.698761    91.429443    -2.061430    54.734394    26.244545    0.483274    2.292623    19.179165    42.903046    11.968527    -26.689573    -19.431492    70.527603    -118.414543    1.666995    -12.116689    22.784170    -5.832088    -3.688930    -23.088324    39.052128    14.801746    -16.631037    -7.438824    31.477034    -0.784417    -7.282979    1.735325    -9.629460    38.274033    11.259929    8.492176    -18.032589    -10.147873    
